<?xml version="1.0" encoding="utf-8"?>
<!-- Generator: Adobe Illustrator 24.3.0, SVG Export Plug-In . SVG Version: 6.00 Build 0)  -->
<svg version="1.1" id="Layer_1" xmlns="http://www.w3.org/2000/svg" xmlns:xlink="http://www.w3.org/1999/xlink" x="0px" y="0px"
	 viewBox="0 0 1000 500" fill="#8FC4EC" xml:space="preserve">
<g>
	<path d="M543.9,118.2c1.33,0,2.26,0.74,2.8,2.2c0.53,1.47,0.4,2.74-0.4,3.8c-13.6,13.34-25.67,28.2-36.2,44.6
		c-10.54,16.4-19.4,33.27-26.6,50.6c-7.2,17.34-12.6,34.47-16.2,51.4c-3.6,16.94-5.4,32.47-5.4,46.6c0,14.4,1.73,25.67,5.2,33.8
		c3.46,8.14,8.26,12.2,14.4,12.2c5.33,0,10.46-2,15.4-6c4.93-4,9.8-9.6,14.6-16.8c0.8-0.53,1.66-0.53,2.6,0
		c0.93,0.54,1.26,1.47,1,2.8c-2.94,4.54-6.27,9-10,13.4c-3.74,4.4-7.8,8.4-12.2,12c-4.4,3.6-8.87,6.54-13.4,8.8
		c-4.54,2.27-8.94,3.4-13.2,3.4c-9.87,0-17.2-4.53-22-13.6c-4.8-9.06-7.2-21.2-7.2-36.4c0-12.53,1.46-26.46,4.4-41.8
		c2.93-15.33,7.26-31,13-47c5.73-16,12.66-31.66,20.8-47c8.13-15.33,17.4-29.13,27.8-41.4c-16,12-32.54,26.4-49.6,43.2
		c-17.07,16.8-33.54,34.74-49.4,53.8c-15.87,19.07-30.67,38.74-44.4,59c-13.74,20.27-25.14,40-34.2,59.2
		c-0.54,1.07-1.6,2.34-3.2,3.8c-1.6,1.47-3.47,2.8-5.6,4c-2.14,1.2-4.27,2.2-6.4,3c-2.14,0.8-4,1.2-5.6,1.2
		c-2.14,0-2.94-0.93-2.4-2.8c5.06-41.33,12.33-78.13,21.8-110.4c9.46-32.26,20.6-62,33.4-89.2c-21.34,32-42.2,60.6-62.6,85.8
		c-20.4,25.2-40.94,46.4-61.6,63.6c-20.67,17.2-41.67,30.34-63,39.4c-21.34,9.07-43.34,13.6-66,13.6c-25.07,0-44.34-6.26-57.8-18.8
		c-13.47-12.53-20.2-29.06-20.2-49.6c0-13.6,3.86-25.8,11.6-36.6c7.73-10.8,18.4-18.73,32-23.8c1.06-0.53,1.8-0.26,2.2,0.8
		c0.4,1.07,0.33,2-0.2,2.8c-8.27,5.34-14.07,11.47-17.4,18.4c-3.34,6.94-5,16-5,27.2c0,8.8,1.46,17.14,4.4,25
		c2.93,7.87,7.2,14.8,12.8,20.8s12.66,10.74,21.2,14.2c8.53,3.47,18.4,5.2,29.6,5.2c23.2,0,45.4-5.33,66.6-16
		c21.2-10.66,41.86-25.26,62-43.8c20.13-18.53,39.86-40.33,59.2-65.4c19.33-25.06,38.6-52,57.8-80.8c-18.67-6.4-38.2-11.8-58.6-16.2
		c-20.4-4.4-40.07-6.6-59-6.6c-21.6,0-38.27,6.07-50,18.2c-11.74,12.14-18.94,28.47-21.6,49c-0.54,1.34-1.27,1.87-2.2,1.6
		c-0.94-0.26-1.54-1.06-1.8-2.4c2.93-26.4,12.53-46.53,28.8-60.4c16.26-13.86,37.46-20.8,63.6-20.8c10.66,0,22,0.74,34,2.2
		c12,1.47,23.8,3.4,35.4,5.8s22.66,5,33.2,7.8c10.53,2.8,19.8,5.54,27.8,8.2c1.06-0.26,2.4-0.66,4-1.2c1.06,0.27,1.73,0.94,2,2
		c0.26,1.07,0.13,2-0.4,2.8c-3.74,2.14-6.87,5-9.4,8.6c-2.54,3.6-5.27,8.07-8.2,13.4c-13.34,26.94-23.94,55-31.8,84.2
		c-7.87,29.2-14.34,58.74-19.4,88.6c12.26-22.13,26.73-44.33,43.4-66.6c16.66-22.26,34.46-43.4,53.4-63.4
		c18.93-20,38.46-38.4,58.6-55.2C505.03,143.4,524.7,129.4,543.9,118.2z"/>
	<path d="M537.09,381c-2.4,0-4.34-0.66-5.8-2c-1.47-1.33-2.2-3.86-2.2-7.6c0-1.6,0.53-3.46,1.6-5.6c1.06-2.13,2.53-4.2,4.4-6.2
		c1.86-2,4-3.66,6.4-5c2.4-1.33,4.8-2,7.2-2c1.6,0,3.06,0.6,4.4,1.8c1.33,1.2,2,2.74,2,4.6c0,2.14-0.54,4.54-1.6,7.2
		c-1.07,2.67-2.54,5.07-4.4,7.2c-1.87,2.14-3.87,3.94-6,5.4C540.96,380.27,538.96,381,537.09,381z"/>
	<path d="M973.49,147c0.8,0.54,1.2,1.27,1.2,2.2c0,0.94-0.8,2.2-2.4,3.8c-8.8,9.6-16.67,20.6-23.6,33
		c-6.94,12.4-12.8,25.94-17.6,40.6c-4.8,14.67-8.54,30.14-11.2,46.4c-2.67,16.27-4,32.94-4,50c0,12.8,1.53,22.74,4.6,29.8
		c3.06,7.07,8.46,10.6,16.2,10.6c10.66,0,20.8-7.46,30.4-22.4c0.8-0.53,1.6-0.53,2.4,0c0.8,0.54,1.06,1.34,0.8,2.4
		c-6.94,11.2-14.6,20.27-23,27.2c-8.4,6.94-16.2,10.4-23.4,10.4c-10.67,0-18.74-4.13-24.2-12.4c-5.47-8.26-8.2-20-8.2-35.2
		c0-21.33,2.4-43.06,7.2-65.2c-12.54,0-24.87,0.14-37,0.4c-12.14,0.27-23.94,0.67-35.4,1.2c-8.8,9.34-17.27,18.14-25.4,26.4
		c-8.14,8.27-16.07,15.87-23.8,22.8c-21.34,19.47-43.27,34.67-65.8,45.6c-22.54,10.94-47.27,16.4-74.2,16.4
		c-14.4,0-25.94-3.2-34.6-9.6c-8.67-6.4-14.4-14.53-17.2-24.4c-2.8-9.86-2.74-20.66,0.2-32.4c2.93-11.73,8.8-23.06,17.6-34
		c0.8-0.53,1.73-0.46,2.8,0.2c1.06,0.67,1.46,1.94,1.2,3.8c-6.14,6.67-9.54,14.34-10.2,23c-0.67,8.67,1.2,16.8,5.6,24.4
		c4.4,7.6,11.26,14,20.6,19.2c9.33,5.2,21.06,7.8,35.2,7.8c22.66,0,43.93-4.66,63.8-14c19.86-9.33,38.6-22,56.2-38
		c6.13-5.33,12.26-11.06,18.4-17.2c6.13-6.13,12.53-12.53,19.2-19.2c-9.34,0.54-18.14,1.14-26.4,1.8c-8.27,0.67-16,1.54-23.2,2.6
		c-1.34-0.26-1.6-0.93-0.8-2c0.8-1.06,2-2.2,3.6-3.4s3.53-2.26,5.8-3.2c2.26-0.93,4.46-1.53,6.6-1.8c3.46-0.26,8.86-0.46,16.2-0.6
		c7.33-0.13,15.66-0.33,25-0.6c14.93-15.46,31.53-32.2,49.8-50.2c18.26-18,39.93-36.86,65-56.6c-17.87-5.86-36.34-10.73-55.4-14.6
		c-19.07-3.86-37.4-5.8-55-5.8c-20,0-36.4,5.54-49.2,16.6c-12.8,11.07-20.67,28.47-23.6,52.2c-0.54,1.34-1.27,1.87-2.2,1.6
		c-0.94-0.26-1.54-1.06-1.8-2.4c3.2-26.13,12.93-46.13,29.2-60c16.26-13.86,37.33-20.8,63.2-20.8c10.93,0,22.4,0.74,34.4,2.2
		c12,1.47,23.8,3.34,35.4,5.6c11.6,2.27,22.66,4.8,33.2,7.6C956.22,141.6,965.49,144.34,973.49,147z M899.89,263
		c4.26-19.2,10.26-37.86,18-56c7.73-18.13,17.2-34.8,28.4-50c-23.47,18.94-44.4,37.34-62.8,55.2c-18.4,17.87-35.34,34.94-50.8,51.2
		c12.8-0.26,25.4-0.4,37.8-0.4C882.89,263,892.69,263,899.89,263z"/>
</g>
</svg>
